<?xml version="1.0" standalone="no"?>
<!DOCTYPE svg PUBLIC "-//W3C//DTD SVG 20010904//EN"
 "http://www.w3.org/TR/2001/REC-SVG-20010904/DTD/svg10.dtd">
<svg version="1.0" xmlns="http://www.w3.org/2000/svg"
 width="250.000000pt" height="250.000000pt" viewBox="0 0 250.000000 250.000000"
 preserveAspectRatio="xMidYMid meet">
<metadata>
Created by potrace 1.10, written by Peter Selinger 2001-2011
</metadata>
<g transform="translate(0.000000,250.000000) scale(0.100000,-0.100000)"
fill="#000000" stroke="none">
<path d="M1005 2474 c-363 -72 -684 -313 -859 -644 -82 -156 -137 -356 -135
-494 1 -84 7 -69 38 101 20 105 40 180 61 228 5 11 14 37 21 58 7 20 17 37 21
37 4 0 8 7 8 15 0 16 41 88 102 179 58 85 208 233 302 295 93 63 221 131 245
131 9 0 21 4 26 8 18 16 282 82 327 82 13 0 30 5 38 10 23 15 -111 10 -195 -6z"/>
<path d="M1293 2484 c4 -5 140 -35 272 -60 17 -3 34 -10 40 -15 5 -5 18 -9 29
-9 11 0 38 -8 60 -18 23 -10 59 -27 81 -36 22 -10 85 -47 140 -83 161 -106
336 -296 396 -430 7 -18 17 -33 21 -33 5 0 8 -5 8 -12 0 -6 11 -35 25 -64 14
-30 28 -68 32 -86 3 -18 9 -37 13 -43 7 -10 11 -23 30 -110 43 -197 55 -221
47 -95 -18 268 -175 579 -389 773 -183 166 -363 259 -597 308 -87 18 -222 26
-208 13z"/>
<path d="M1144 2366 c-71 -31 -144 -127 -144 -189 0 -30 -21 -48 -85 -78 -212
-96 -383 -284 -449 -494 -40 -127 -42 -149 -44 -461 l-2 -255 -55 -55 c-98
-98 -108 -117 -109 -193 -1 -60 -3 -66 -16 -52 -17 16 -29 37 -62 101 -13 25
-26 47 -30 48 -5 2 -8 10 -8 18 0 14 -4 25 -28 71 -7 13 -12 30 -12 38 0 8 -4
23 -9 33 -14 26 -38 126 -56 237 -9 55 -19 102 -21 104 -2 2 -4 -31 -4 -75 1
-129 50 -324 117 -457 175 -350 472 -584 858 -675 83 -20 228 -29 190 -13 -28
13 -155 41 -182 41 -12 0 -25 5 -28 10 -3 6 -17 10 -30 10 -13 0 -26 4 -29 9
-3 4 -21 11 -40 14 -49 8 -217 90 -301 147 -71 49 -229 189 -222 197 3 2 36
-3 73 -12 52 -12 114 -16 250 -14 100 1 187 -1 193 -5 6 -4 11 -14 11 -21 0
-33 35 -112 71 -161 58 -79 131 -126 228 -145 199 -39 389 75 446 269 l18 62
171 2 c94 0 180 0 191 -1 31 -4 128 22 145 37 12 12 15 12 19 1 10 -30 -299
-279 -346 -279 -7 0 -13 -4 -13 -10 0 -5 -7 -10 -15 -10 -9 0 -26 -6 -38 -14
-12 -7 -47 -21 -77 -31 -30 -10 -64 -21 -75 -25 -38 -14 -100 -31 -188 -50
-49 -10 -92 -21 -95 -25 -13 -13 124 -1 202 17 156 36 303 98 419 176 158 107
248 198 359 361 108 159 192 398 197 564 2 71 -14 63 -25 -13 -4 -25 -9 -49
-13 -55 -3 -5 -7 -21 -8 -35 -3 -28 -21 -94 -33 -125 -5 -11 -11 -33 -15 -50
-9 -44 -112 -249 -135 -270 -20 -18 -20 -17 -20 46 0 54 -5 73 -29 110 -15 25
-49 62 -74 83 -25 20 -48 45 -52 54 -3 9 -10 148 -15 307 -6 176 -15 313 -23
350 -47 208 -191 403 -381 518 -42 26 -80 47 -85 47 -16 0 -73 32 -77 44 -2 6
-5 20 -7 31 -12 73 -82 161 -153 191 -42 18 -159 17 -200 0z m213 -46 c63 -36
103 -103 103 -172 l0 -43 73 -27 c237 -89 416 -296 477 -551 17 -70 20 -118
20 -337 0 -155 4 -271 11 -295 8 -29 31 -59 84 -110 65 -63 74 -75 80 -118 14
-90 -35 -166 -124 -196 -21 -7 -118 -11 -262 -11 l-229 0 0 -42 c0 -98 -94
-225 -203 -274 -51 -23 -76 -28 -142 -28 -69 0 -89 4 -147 32 -106 51 -179
149 -196 263 l-7 50 -227 -1 c-211 -1 -231 1 -277 21 -68 29 -104 81 -104 152
0 69 22 108 87 156 83 62 86 74 86 374 0 139 5 280 11 313 45 254 209 473 434
578 38 18 82 36 98 40 24 6 27 11 27 47 0 162 182 262 327 179z"/>
<path d="M1304 1726 c-3 -7 -3 -59 -2 -117 3 -97 4 -104 24 -107 28 -4 62 -41
67 -72 l4 -25 156 -3 c97 -1 157 1 157 7 0 6 -5 34 -11 63 -29 132 -135 218
-314 251 -59 12 -77 12 -81 3z m193 -71 c94 -45 169 -132 161 -188 -3 -21 -9
-22 -106 -25 l-103 -3 -55 55 c-54 56 -54 56 -54 119 0 35 3 67 8 71 12 13 92
-3 149 -29z"/>
<path d="M1055 1711 c-181 -53 -265 -149 -265 -304 0 -90 17 -135 76 -193 72
-73 133 -98 369 -150 101 -22 153 -47 161 -78 3 -13 4 -88 2 -166 l-3 -142 37
6 c183 29 298 161 298 339 -1 178 -98 255 -405 318 -119 25 -179 49 -195 80
-9 15 -11 65 -8 166 2 78 2 143 -1 142 -3 0 -33 -8 -66 -18z m35 -165 c0 -112
2 -126 22 -151 21 -27 113 -75 144 -75 20 0 176 -38 230 -55 144 -48 214 -133
214 -264 0 -22 -4 -43 -10 -46 -5 -3 -10 -16 -10 -29 0 -31 -51 -108 -93 -140
-40 -30 -134 -68 -141 -57 -3 4 -6 65 -7 134 -1 70 -5 127 -8 127 -3 0 -11 10
-16 22 -17 37 -57 57 -170 85 -173 41 -247 65 -290 91 -51 31 -95 72 -95 89 0
7 -4 13 -9 13 -4 0 -14 26 -21 59 -21 101 15 205 91 262 51 38 141 72 162 62
4 -2 7 -60 7 -127z"/>
<path d="M773 990 c24 -196 137 -288 385 -315 l62 -7 0 121 0 121 -35 0 c-47
0 -94 43 -98 88 l-2 33 -159 2 -158 2 5 -45z m270 -4 c9 -7 17 -20 17 -29 0
-19 46 -59 89 -76 31 -13 31 -14 31 -86 0 -81 -2 -83 -68 -78 -137 10 -257 93
-288 199 -22 78 -15 84 105 84 64 -1 102 -5 114 -14z"/>
</g>
</svg>
