<?xml version="1.0" standalone="no"?>
<!DOCTYPE svg PUBLIC "-//W3C//DTD SVG 20010904//EN"
 "http://www.w3.org/TR/2001/REC-SVG-20010904/DTD/svg10.dtd">
<svg version="1.0" xmlns="http://www.w3.org/2000/svg"
 width="250.000000pt" height="250.000000pt" viewBox="0 0 250.000000 250.000000"
 preserveAspectRatio="xMidYMid meet">
<metadata>
Created by potrace 1.10, written by Peter Selinger 2001-2011
</metadata>
<g transform="translate(0.000000,250.000000) scale(0.050000,-0.050000)"
fill="#0011ff" stroke="none">
<path d="M2340 4988 c-696 -79 -1159 -290 -1598 -729 -1203 -1203 -873 -3229
648 -3979 2159 -1065 4399 1206 3318 3363 -428 855 -1470 1447 -2368 1345z
m370 -333 c122 -64 205 -196 224 -356 6 -54 20 -99 30 -99 150 0 574 -287 754
-511 286 -355 344 -570 357 -1329 11 -640 16 -663 159 -771 143 -108 186 -182
186 -319 0 -287 -137 -350 -757 -350 l-458 0 -13 -95 c-104 -775 -1276 -793
-1387 -21 l-15 106 -490 10 c-531 11 -569 18 -657 131 -133 169 -109 333 76
509 201 191 189 143 203 850 11 574 15 630 57 750 171 493 542 871 1016 1035
60 21 65 30 65 109 0 300 369 500 650 351z"/>
<path d="M2620 3244 l0 -217 68 -32 c47 -22 77 -56 94 -104 l26 -71 296 0 296
0 0 46 c0 267 -231 490 -590 567 -203 44 -190 57 -190 -189z"/>
<path d="M2111 3417 c-378 -88 -596 -406 -513 -750 69 -281 284 -406 950 -549
64 -14 145 -44 180 -68 l62 -42 5 -323 6 -324 64 12 c366 69 595 326 595 668
0 321 -209 502 -702 610 -348 76 -398 92 -460 144 l-58 49 0 298 c0 226 -6
298 -25 296 -14 -1 -61 -10 -104 -21z"/>
<path d="M1560 1982 c0 -350 338 -620 776 -622 l105 0 -5 213 -6 214 -60 18
c-141 42 -210 112 -210 214 0 40 -11 41 -300 41 l-300 0 0 -78z"/>
</g>
</svg>
