<?xml version="1.0" standalone="no"?>
<!DOCTYPE svg PUBLIC "-//W3C//DTD SVG 20010904//EN"
 "http://www.w3.org/TR/2001/REC-SVG-20010904/DTD/svg10.dtd">
<svg version="1.0" xmlns="http://www.w3.org/2000/svg"
 width="250.000000pt" height="250.000000pt" viewBox="0 0 250.000000 250.000000"
 preserveAspectRatio="xMidYMid meet">

<g transform="translate(0.000000,250.000000) scale(0.100000,-0.100000)"
fill="#000000" stroke="none">
<path d="M1145 2494 c-447 -45 -819 -301 -1018 -700 -83 -165 -119 -328 -120
-539 -1 -349 117 -637 362 -884 163 -164 353 -271 591 -333 105 -28 129 -31
285 -31 182 0 264 13 416 68 316 114 582 351 714 639 89 192 118 322 118 536
0 214 -29 344 -119 538 -131 284 -411 536 -709 639 -145 50 -384 81 -520 67z
m207 -171 c60 -33 101 -96 108 -167 l5 -48 85 -37 c224 -96 383 -274 451 -503
20 -65 23 -104 28 -373 5 -224 10 -306 20 -325 7 -14 44 -54 81 -90 61 -58 69
-70 75 -113 13 -83 -30 -158 -110 -193 -11 -5 -128 -11 -260 -14 l-240 -5 -7
-53 c-16 -108 -95 -210 -201 -258 -52 -23 -75 -28 -142 -27 -70 0 -90 4 -147
32 -106 50 -179 148 -194 260 l-7 51 -229 0 c-210 0 -233 2 -276 21 -69 30
-95 69 -100 146 -4 55 -1 68 21 102 14 21 41 48 61 60 19 12 45 39 58 59 22
36 23 47 29 337 7 339 10 362 83 510 53 106 131 205 214 269 61 46 196 119
245 131 22 6 27 13 27 39 0 165 176 268 322 189z"/>
<path d="M1300 1622 l0 -108 36 -17 c25 -12 41 -30 52 -57 l17 -40 147 0 c81
0 149 3 151 8 3 4 1 32 -5 62 -15 89 -71 161 -160 206 -53 27 -155 54 -205 54
l-33 0 0 -108z"/>
<path d="M1035 1706 c-164 -53 -245 -151 -245 -299 0 -84 17 -132 67 -187 64
-72 141 -104 366 -155 84 -19 126 -34 147 -52 l30 -25 0 -155 0 -155 37 7 c84
16 148 48 205 105 66 67 88 125 88 234 -1 172 -98 251 -390 316 -158 35 -201
53 -211 90 -4 14 -7 85 -8 158 -1 149 1 146 -86 118z"/>
<path d="M774 983 c17 -127 68 -203 170 -253 58 -29 184 -59 249 -60 l28 0 -3
117 -3 117 -39 8 c-51 11 -73 31 -88 80 l-11 38 -155 0 -155 0 7 -47z"/>
</g>
</svg>
